<svg xmlns="http://www.w3.org/2000/svg" width="374" height="363" fill="none" xmlns:v="https://vecta.io/nano"><g clip-path="url(#B)"><mask id="A" fill="#fff"><path fill-rule="evenodd" d="M208.784 233.489c40.318-20.268 67.982-62.009 67.982-110.211C276.766 55.193 221.573 0 153.489 0S30.211 55.193 30.211 123.278c0 49.148 28.761 91.578 70.371 111.379L47.23 491.413h217.383l-55.828-257.924z"/></mask><path fill-rule="evenodd" d="M208.784 233.489c40.318-20.268 67.982-62.009 67.982-110.211C276.766 55.193 221.573 0 153.489 0S30.211 55.193 30.211 123.278c0 49.148 28.761 91.578 70.371 111.379L47.23 491.413h217.383l-55.828-257.924z" fill="#fff"/><path d="M208.784 233.489l-8.983-17.869-13.842 6.958 3.277 15.142 19.548-4.231zm-108.202 1.168l19.581 4.069 3.196-15.379-14.184-6.75-8.593 18.06zM47.23 491.413l-19.582-4.069-5.001 24.069H47.23v-20zm217.383 0v20h24.793l-5.245-24.231-19.548 4.231zm-7.846-368.135c0 40.353-23.139 75.337-56.965 92.342l17.966 35.738c46.81-23.532 78.999-72.029 78.999-128.08h-40zM153.489 20c57.038 0 103.277 46.239 103.277 103.278h40C296.766 44.148 232.619-20 153.489-20v40zM50.211 123.278C50.211 66.239 96.45 20 153.489 20v-40C74.359-20 10.211 44.148 10.211 123.278h40zm58.964 93.319c-34.905-16.61-58.964-52.175-58.964-93.319h-40c0 57.151 33.463 106.448 81.777 129.438l17.187-36.119zM66.811 495.482l53.352-256.756L81 230.588 27.648 487.344l39.163 8.138zm197.801-24.069H47.23v40h217.383v-40zM189.236 237.72l55.829 257.924 39.095-8.462-55.829-257.924-39.095 8.462z" fill="#785b2f" fill-opacity=".07" mask="url(#A)"/><g fill="#f7bf68"><path d="M163.15 233.473c-26.573-8.597-47.219 6.839-54.22 15.631 7.576-21.103 38.211-22.039 52.582-19.87l1.638 4.239zM53.244 266.201l-5.373-8.793c25.4-23.446 49.01-14.654 57.639-7.327-13.286-8.988-40.38 7.001-52.266 16.12z"/></g><g fill="#fdfdfd" stroke="#000"><path d="M0 183.649c5.08-5.08 19.376-7.001 25.889-7.327l31.262 56.174c33.997 1.563 45.753 11.072 47.381 15.631-25.791-15.24-53.08 2.768-63.501 13.677L0 183.649z"/><path d="M55.685 232.008l-44.45-85.482c18.366-4.689 44.776 18.236 55.685 30.285l40.054 72.782c-10.551-16.022-38.589-18.399-51.289-17.585z"/><path d="M107.461 247.639L66.43 176.322c20.711-28.917 49.986-22.469 62.035-15.631l37.124 69.363c-33.998-8.988-52.918 7.978-58.128 17.585z"/></g><path d="M148.377 306.532c.423-56.069 57.62-77.492 86.165-81.195l42.08 2.388c65.936 17.669 79.177 58.929 77.954 97.872-.978 31.155-34.989 44.348-51.873 47.05l-2.975 7.13-122.458-.43-.859-16.757c-23.203-6.23-26.595-34.829-28.034-56.058z" fill="#f7bf68"/><path d="M223.127 195.561l13.638-54.999c4.886 8.149 20.663 8.2 26.966 6.511 5.043-1.351 8.147 1.27 9.069 2.749 7.737 1.981 7.285 22.145 3.316 30.865s-2.971 11.605-.532 12.303 5.351-1.884 6.131-5.696c.624-3.05 3.779-3.265 5.279-2.991 7.162 9.25-.207 14.918-4.787 16.596l-7.974 34.114c.207.771-.735 3.981-6.152 10.657-6.772 8.345-22.216 6.178-29.818-.343-6.082-5.216-5.352-14.93-4.226-19.135l2.411-10.33c-11.985-2.373-13.875-14.523-13.321-20.301z" fill="#ecf0f9"/><path d="M224.389 192.897l13.637-54.999c4.886 8.149 20.664 8.2 26.967 6.511 5.043-1.351 8.147 1.27 9.069 2.75 7.737 1.98 7.285 22.144 3.316 30.864s-2.971 11.606-.532 12.303 5.35-1.884 6.13-5.696c.625-3.05 3.78-3.265 5.279-2.991 7.163 9.251-.206 14.918-4.786 16.596l-7.974 34.115c.207.77-.735 3.98-6.152 10.656-6.772 8.345-22.216 6.178-29.818-.342-6.082-5.217-5.352-14.931-4.227-19.136l2.412-10.33c-11.986-2.373-13.875-14.523-13.321-20.301z" fill="#fff"/><g stroke="#000"><path d="M238.655 157.273c1.471-.909 4.68-1.923 5.747 1.289m1.612 34.807c2.15.024 6.685-.968 7.628-5.131m-16.323-24.434c1.471-.909 4.681-1.923 5.747 1.289m20.288-4.921c1.472-.909 4.681-1.923 5.747 1.289m-8.571 6.412c1.471-.908 4.68-1.922 5.747 1.29m-23.422 8.59c-1.63 2.237-3.455 6.687 2.28 6.591"/></g><g fill="#2e3446"><circle cx="240.06" cy="165.77" r="1.615" transform="rotate(345 240.06 165.77)"/><circle cx="263.587" cy="169.664" r="1.615" transform="rotate(345 263.587 169.664)"/></g><path d="M234.605 224.974c-20.292 2.153-65.214 16.663-82.564 57.484-1.69 4.511-4.764 15.537-3.543 23.557.426 18.099 6.606 54.588 27.915 55.758m22.353-95.313c-8.144 20.879-20.723 61.634-22.353 95.313m116.956-99.213c27.121 24.478 20.337 73.662 8.952 109.467m-25.152-143.966c18.892 3.44 59.912 20.235 72.858 59.895 9.444 23.933 13.124 74.254-47.706 84.071m0 0c-3.251 10.224-6.877 19.357-10.196 26.512l-112.394-4.086c-3.054-9.086-3.912-20.414-3.318-32.68" stroke="#000"/><path d="M237.02 136.679c-4.342-5.804.069-7.483 2.817-7.598-1.037-6.192 9.498-7.273 13.288-3.809 3.031 2.771 12.89 4.924 17.441 5.654 12.713-1.217 18.377 9.923 19.62 15.646 11.06 4.128 7.112 17.255 4.523 21.059-2.071 3.044-4.812 10.829-5.61 14.817-1.742-1.856-4.716-1.35-6.105 2.755-2.417 7.146-13.719 5.916-7.088-3.699s4.774-22.33 3.801-26.424c-.778-3.275-1.731-5.452-3.893-5.031-.829-5.851-15.109-6.237-22.976-5.415-3.463-.233-11.476-2.15-15.818-7.955z" fill="#2e3446"/><path d="M262.412 210.552c-4.597 3.448-18.699 2.985-24.805 2.745l-.994 4.833c18.101.862 25.2-4.824 25.799-7.578z" fill="#ecf0f9"/><path d="M297.026 259.695c-2.96 1.151-8.979 4.934-9.374 10.854" stroke="#000"/><path fill-rule="evenodd" d="M219.346 122.042c6.802-.881 12.957-5.276 15.767-12.068 4.18-10.101-.62-21.678-10.722-25.858s-21.678.62-25.858 10.722c-3.218 7.777-1.113 16.429 4.636 21.906l-1.493 4.465 16.259 5.782 1.612-4.875-.201-.074z" fill="#f7bf68"/><path d="M209.882 119.86l-.583-15.003c-.167-1.775-.872-5.034-2.357-3.872s.6 2.984 1.828 3.75c1.422.299 4.529.445 5.584-1.359m0 0c1.32-2.255 2.707-4.674.296-5.382s-1.188 5.206-.296 5.382zm0 0c.986.73 3.336 2.114 4.851 1.814m0 0c1.893-.375 4.14-2.536 3.073-3.46s-3.429 1.285-3.073 3.46zm0 0c.343.882 1.249 2.815 2.129 3.489m0 0c1.101.841 4.919 1.649 5.209-.452s-4.02-1.954-5.209.452zm0 0c-2.518 3.207-7.601 10.201-7.787 12.518" stroke="#000" stroke-width=".5"/><g fill="#703c1d"><rect x="201.793" y="123.371" width="16.847" height="2.315" rx="1.157" transform="rotate(19.19 201.793 123.371)"/><path d="M200.133 127.56c.211-.607.875-.928 1.483-.717l13.699 4.768c.614.213.938.884.725 1.498a1.18 1.18 0 0 1-1.461.737l-.368-.114c-.575-.179-1.201-.014-1.614.424l-2.76 2.927-6.71-2.507-.346-3.67a1.91 1.91 0 0 0-1.252-1.617l-.693-.251c-.599-.217-.913-.876-.703-1.478z"/></g></g><defs><clipPath id="B"><path fill="#fff" d="M0 0h374v363H0z"/></clipPath></defs></svg>